<?xml version="1.0" encoding="UTF-8"?>
<svg id="Layer_1" data-name="Layer 1" xmlns="http://www.w3.org/2000/svg" viewBox="0 0 619 619">
  <defs>
    <style>
      .cls-1 {
        fill: #e81841;
      }

      .cls-1, .cls-2 {
        stroke-width: 0px;
      }

      .cls-2 {
        fill: #fff;
      }
    </style>
  </defs>
  <rect class="cls-2" width="619" height="619"/>
  <g>
    <path class="cls-1" d="M254.1,258.49c-2.32-1.05-5.05-.08-6.2,2.19l-24.39,47.89-44,86.39-.98,1.92-.07.13-1.03,2.03-1.41,2.75c-.51,1-.98,2.02-1.44,3.04l-12.45,24.54c-2,3.94,1.98,8.24,6.06,6.55l76.76-31.64,145.7-59.07c3.5-1.42,4.04-6.16.94-8.32-40.8-28.47-88.96-56.41-137.49-78.42Z"/>
    <path class="cls-1" d="M574.57,264.38c-78.32,17.71-165.21,23.72-211.2-17.91-30.66-27.76-39.82-73.62-27.33-136.46.03-.14.06-.27.11-.4.35-.9,1.82-5.43-3.95-6.58-6.41-1.28-22.25,35.82-22.25,35.82h0s-41.28,81.06-41.28,81.06c-1.55,3.04-.06,6.74,3.15,7.9,63.21,22.73,124.51,56.08,172.79,92.57,1.59,1.2,3.68,1.48,5.53.73l126.17-51.14c3.35-1.36,1.79-6.39-1.74-5.59Z"/>
    <path class="cls-1" d="M263.18,230.66c.28-.55,0-1.23-.58-1.43-58.74-20.26-118.68-31.02-170.76-26.22-26.54,3.67-43.71,13.5-49.55,28.4-2.97,7.6-3.11,16.48-.51,26.2-2.06-10.22-1.05-19.16,3.13-26.61,9.03-16.1,31.84-23.14,65.96-20.35,41.48,3.96,90.64,19.51,140.22,41.62.49.22,1.07.02,1.32-.47l10.77-21.15Z"/>
    <path class="cls-1" d="M441.82,324.48l-36.48,14.79c-.74.3-.86,1.3-.21,1.77,22.48,16.24,42.77,32.75,59.75,48.74,15.11,14.58,25.64,26.63,34.14,39.11,7.02,10.75,10.87,19.47,12.12,27.48,1.03,6.53-.42,12.25-4.29,17.04-7.74,9.57-25.15,15.18-51.81,16.68-36.57.9-75.08-4.62-116.25-16.76-1.24-.37-1.87,1.44-.67,1.92,67.23,26.57,119.69,36.5,156.58,29.55,12.72-2.59,29.76-9.06,38.52-25.04,19.34-36.91-13.17-82.68-43.87-114.59-13.41-13.7-29.1-27.33-46.53-40.54-.29-.22-.67-.27-1-.13Z"/>
  </g>
</svg>