<?xml version="1.0" encoding="UTF-8"?>
<svg id="Layer_1" data-name="Layer 1" xmlns="http://www.w3.org/2000/svg" viewBox="0 0 1920 474.96">
  <defs>
    <style>
      .cls-1 {
        letter-spacing: 0em;
      }

      .cls-2 {
        font-family: Poppins-Light, Poppins;
        font-size: 93px;
        font-weight: 300;
      }

      .cls-2, .cls-3, .cls-4 {
        fill: #fff;
      }

      .cls-5 {
        letter-spacing: -.04em;
      }

      .cls-6 {
        letter-spacing: -.06em;
      }

      .cls-7 {
        letter-spacing: -.06em;
      }

      .cls-8 {
        letter-spacing: -.02em;
      }

      .cls-9 {
        letter-spacing: -.1em;
      }

      .cls-10 {
        letter-spacing: -.04em;
      }

      .cls-3 {
        font-family: Poppins-Medium, Poppins;
        font-size: 266.37px;
        font-weight: 500;
      }

      .cls-11 {
        letter-spacing: -.06em;
      }

      .cls-12 {
        letter-spacing: -.08em;
      }

      .cls-13 {
        letter-spacing: 0em;
      }

      .cls-14 {
        letter-spacing: -.08em;
      }

      .cls-15 {
        letter-spacing: -.08em;
      }

      .cls-4 {
        stroke-width: 0px;
      }

      .cls-16 {
        letter-spacing: -.1em;
      }
    </style>
  </defs>
  <text class="cls-3" transform="translate(707.15 310.9)"><tspan class="cls-15" x="0" y="0">B</tspan><tspan class="cls-10" x="146.5" y="0">r</tspan><tspan class="cls-12" x="238.12" y="0">i</tspan><tspan class="cls-6" x="287.13" y="0">ll</tspan><tspan class="cls-15" x="395.81" y="0">i</tspan><tspan class="cls-16" x="444.82" y="0">a</tspan><tspan class="cls-12" x="598.77" y="0">n</tspan><tspan class="cls-7" x="750.33" y="0">c</tspan><tspan class="cls-13" x="894.17" y="0">e </tspan></text>
  <text class="cls-2" transform="translate(1133.97 393.9)"><tspan class="cls-5" x="0" y="0">IN</tspan><tspan class="cls-11" x="77.66" y="0">T</tspan><tspan class="cls-14" x="120.44" y="0">E</tspan><tspan class="cls-5" x="159.78" y="0">R</tspan><tspan class="cls-8" x="210.65" y="0">N</tspan><tspan class="cls-9" x="272.59" y="0">A</tspan><tspan class="cls-8" x="323.93" y="0">T</tspan><tspan class="cls-5" x="370.43" y="0">IO</tspan><tspan class="cls-1" x="457.58" y="0">NAL</tspan></text>
  <g>
    <path class="cls-4" d="M290.3,165.72c-2.31-1.05-5.03-.08-6.17,2.18l-24.28,47.68-43.8,86.01-.98,1.91-.07.13-1.02,2.03-1.4,2.74c-.51,1-.98,2.01-1.43,3.02l-12.4,24.43c-1.99,3.92,1.97,8.2,6.03,6.53l76.43-31.5,145.06-58.81c3.49-1.41,4.02-6.13.93-8.28-40.62-28.34-88.56-56.16-136.88-78.07Z"/>
    <path class="cls-4" d="M609.34,171.59c-77.98,17.63-164.48,23.62-210.27-17.83-30.52-27.63-39.64-73.29-27.21-135.85.03-.13.06-.27.11-.4.35-.89,1.81-5.41-3.94-6.56-6.38-1.28-22.15,35.66-22.15,35.66h0s-41.09,80.7-41.09,80.7c-1.54,3.03-.06,6.71,3.14,7.86,62.93,22.63,123.96,55.83,172.02,92.16,1.58,1.2,3.67,1.48,5.5.73l125.61-50.91c3.34-1.36,1.78-6.37-1.74-5.56Z"/>
    <path class="cls-4" d="M299.34,138.02c.28-.55,0-1.22-.58-1.42-58.48-20.17-118.15-30.88-170-26.11-26.42,3.65-43.52,13.44-49.33,28.27-2.96,7.57-3.09,16.41-.51,26.09-2.05-10.17-1.05-19.08,3.12-26.49,8.99-16.03,31.7-23.04,65.67-20.26,41.29,3.94,90.24,19.43,139.6,41.43.49.22,1.07.02,1.31-.46l10.72-21.05Z"/>
    <path class="cls-4" d="M477.19,231.42l-36.32,14.72c-.74.3-.85,1.29-.21,1.76,22.38,16.17,42.58,32.6,59.48,48.52,15.05,14.51,25.53,26.51,33.99,38.93,6.99,10.71,10.82,19.39,12.07,27.36,1.02,6.5-.42,12.2-4.27,16.96-7.7,9.53-25.04,15.11-51.58,16.61-36.41.9-74.75-4.6-115.74-16.68-1.24-.36-1.86,1.43-.66,1.91,66.93,26.46,119.16,36.34,155.89,29.42,12.67-2.58,29.63-9.01,38.35-24.93,19.25-36.75-13.11-82.32-43.67-114.08-13.35-13.64-28.97-27.2-46.33-40.36-.29-.22-.67-.27-1-.13Z"/>
  </g>
</svg>