<?xml version="1.0" encoding="UTF-8"?>
<svg id="Layer_1" data-name="Layer 1" xmlns="http://www.w3.org/2000/svg" viewBox="0 0 543 502">
  <defs>
    <style>
      .cls-1 {
        fill: #e81841;
        stroke-width: 0px;
      }
    </style>
  </defs>
  <path class="cls-1" d="M235.28,204.72c-2.31-1.05-5.03-.08-6.17,2.18l-24.28,47.68-43.8,86.01-.98,1.91-.07.13-1.02,2.03-1.4,2.74c-.51,1-.98,2.01-1.43,3.02l-12.4,24.43c-1.99,3.92,1.97,8.2,6.03,6.53l76.43-31.5,145.06-58.81c3.49-1.41,4.02-6.13.93-8.28-40.62-28.34-88.56-56.16-136.88-78.07Z"/>
  <path class="cls-1" d="M554.32,210.59c-77.98,17.63-164.48,23.62-210.27-17.83-30.52-27.63-39.64-73.29-27.21-135.85.03-.13.06-.27.11-.4.35-.89,1.81-5.41-3.94-6.56-6.38-1.28-22.15,35.66-22.15,35.66h0s-41.09,80.7-41.09,80.7c-1.54,3.03-.06,6.71,3.14,7.86,62.93,22.63,123.96,55.83,172.02,92.16,1.58,1.2,3.67,1.48,5.5.73l125.61-50.91c3.34-1.36,1.78-6.37-1.74-5.56Z"/>
  <path class="cls-1" d="M244.32,177.02c.28-.55,0-1.22-.58-1.42-58.48-20.17-118.15-30.88-170-26.11-26.42,3.65-43.52,13.44-49.33,28.27-2.96,7.57-3.09,16.41-.51,26.09-2.05-10.17-1.05-19.08,3.12-26.49,8.99-16.03,31.7-23.04,65.67-20.26,41.29,3.94,90.24,19.43,139.6,41.43.49.22,1.07.02,1.31-.46l10.72-21.05Z"/>
  <path class="cls-1" d="M422.17,270.42l-36.32,14.72c-.74.3-.85,1.29-.21,1.76,22.38,16.17,42.58,32.6,59.48,48.52,15.05,14.51,25.53,26.51,33.99,38.93,6.99,10.71,10.82,19.39,12.07,27.36,1.02,6.5-.42,12.2-4.27,16.96-7.7,9.53-25.04,15.11-51.58,16.61-36.41.9-74.75-4.6-115.74-16.68-1.24-.36-1.86,1.43-.66,1.91,66.93,26.46,119.16,36.34,155.89,29.42,12.67-2.58,29.63-9.01,38.35-24.93,19.25-36.75-13.11-82.32-43.67-114.08-13.35-13.64-28.97-27.2-46.33-40.36-.29-.22-.67-.27-1-.13Z"/>
</svg>